<svg xmlns="http://www.w3.org/2000/svg" version="1.1" xmlns:xlink="http://www.w3.org/1999/xlink" xmlns:svgjs="http://svgjs.dev/svgjs" width="1000" height="1000" viewBox="0 0 1000 1000"><rect width="1000" height="1000" fill="#7a26c1"></rect><g transform="matrix(0.7,0,0,0.7,149.57605563665675,407.9720563101776)"><svg viewBox="0 0 396 104" data-background-color="#7a26c1" preserveAspectRatio="xMidYMid meet" height="262" width="1000" xmlns="http://www.w3.org/2000/svg" xmlns:xlink="http://www.w3.org/1999/xlink"><g id="tight-bounds" transform="matrix(1,0,0,1,0.24008861730862918,0.1859658873584067)"><svg viewBox="0 0 395.52 103.62806793579253" height="103.62806793579253" width="395.52"><g><svg viewBox="0 0 395.52 103.62806793579253" height="103.62806793579253" width="395.52"><g><svg viewBox="0 0 395.52 103.62806793579253" height="103.62806793579253" width="395.52"><g><svg viewBox="0 0 395.52 103.62806793579253" height="103.62806793579253" width="395.52"><g><svg viewBox="0 0 395.52 79.82665914427804" height="79.82665914427804" width="395.52"><path d="M394.594 17.121C392.735 8.835 387.435 6.532 387.435 6.532 371.165-2.003 350.86-0.163 332.619 1.063 300.414 1.113 268.339 2.936 236.208 3.913 168.767 4.063 100.749 1.61 33.643 7.659 27.339 9.515-6.54 8.023 1.121 18.182 3.129 22.408 10.456 27.098 10.232 30.975 11.236 31.655 12.631 30.097 13.226 31.075 15.309 33.71 18.711 32.467 21.501 34.025 17.614 38.184 20.403 41.648 23.062 45.277 18.377 46.222 12.371 45.774 9.675 48.906 9.396 51.177 7.89 50.746 6.235 50.646 5.026 50.58 2.59 50.829 2.999 51.541 4.394 53.977-1.594 55.386 2.162 57.772-0.422 60.358 3.948 62.595 3.353 65.395 3.278 65.959 3.687 66.439 4.338 66.572 7.22 67.285 3.018 68.677 3.464 70.185 33.029 80.492 65.104 73.367 95.394 78.106 103.259 74.792 97.346 79.283 100.489 78.587 102.943 77.775 104.728 81.139 107.499 79.233 107.927 78.686 107.276 77.394 108.8 77.642 109.6 77.775 110.307 77.742 110.418 76.979 110.586 75.836 109.117 76.548 108.726 75.952 112.947 72.936 111.906 80.111 115.866 79.813 115.68 78.935 114.528 77.675 116.889 77.841 119.232 76.581 119.306 75.537 121.389 78.371 121.463 78.984 121.835 79.415 122.43 79.714 128.938 76.631 135.409 80.807 142.233 79.415 146.417 77.891 150.433 80.244 154.672 79.664 156.16 79.2 157.666 78.371 159.098 79.763 176.632 80.062 195.319 78.819 211.943 79.813 256.364 77.957 303.835 80.575 350.674 78.123 361.719 77.178 373.192 75.836 383.958 74.759 383.958 74.759 392.679 71.809 392.679 58.551S394.538 46.951 394.817 36.394C395.096 25.838 396.398 25.407 394.538 17.121Z" opacity="1" fill="#a437db" data-fill-palette-color="tertiary"></path><g transform="matrix(1,0,0,1,55.76832,26.068561146666667)"><svg width="283.98335999999995" viewBox="2 -34.25 428.6700134277344 41.79999923706055" height="27.68953685094471" data-palette-color="#ffffff"><path d="M12.45-24.48Q10.25-21.7 10.25-16.95 10.25-12.2 12.45-9.43 14.65-6.65 18.4-6.65 22.15-6.65 24.35-9.43 26.55-12.2 26.55-16.95 26.55-21.7 24.35-24.48 22.15-27.25 18.4-27.25 14.65-27.25 12.45-24.48ZM26.6-1.55L36.9 4.2 28.15 7.55 18.2 0.35Q10.8 0.3 6.4-4.45 2-9.2 2-16.95 2-24.7 6.48-29.48 10.95-34.25 18.4-34.25L18.4-34.25Q25.9-34.25 30.35-29.5 34.8-24.75 34.8-16.95L34.8-16.95Q34.8-11.65 32.65-7.65 30.5-3.65 26.6-1.55L26.6-1.55ZM55.25-21.3L58.6-33.2 64.3-33.2 67.6-21.3Q68.65-17.55 69.47-14.33 70.3-11.1 70.6-9.75L70.6-9.75 70.9-8.4Q71.55-12.85 73.7-21.35L73.7-21.35 76.8-33.7 84.65-33.7 75.65 0 67.05 0 64.1-10.65Q63.05-14.5 62.37-17.15 61.7-19.8 61.55-20.55L61.55-20.55 61.45-21.3Q61.3-19.25 58.75-10.65L58.75-10.65 55.65 0 47.05 0 38-33.7 46.1-33.7 49.2-21.3Q50.2-17.3 50.85-14.08 51.5-10.85 51.65-9.6L51.65-9.6 51.85-8.4Q52.7-12.3 55.25-21.3L55.25-21.3ZM97.05 0L89.35 0 89.35-33.7 97.05-33.7 97.05 0ZM111.74 0L104.04 0 104.04-33.7 111.74-33.7 111.74 0ZM132.14-33.7L121.09-16.85 133.04 0 123.39 0 112.09-16.75 122.99-33.7 132.14-33.7ZM149.49-10.1L136.14-10.1 136.14-16.1 149.49-16.1 149.49-10.1ZM153.24-33.7L177.44-33.7 177.44-27.5 169.24-27.5 169.24 0 161.49 0 161.49-27.5 153.24-27.5 153.24-33.7ZM193.69-27.45L189.88-27.45 189.88-17.95 193.53-17.95Q198.53-17.95 198.53-22.85L198.53-22.85Q198.53-25 197.24-26.23 195.94-27.45 193.69-27.45L193.69-27.45ZM208.74 0L199.53 0 192.24-11.7 189.88-11.7 189.88 0 182.19 0 182.19-33.7 193.84-33.7Q199.49-33.7 202.91-30.7 206.34-27.7 206.34-22.9L206.34-22.9Q206.34-15.7 200.19-12.95L200.19-12.95 208.74 0ZM223.08-14.3L222.73-13.1 230.83-13.1 230.48-14.3Q229.03-19.2 228.11-22.65 227.18-26.1 226.98-27.1L226.98-27.1 226.78-28.1Q226.38-25.35 223.08-14.3L223.08-14.3ZM242.98 0L234.73 0 232.68-6.9 220.88-6.9 218.83 0 210.78 0 222.03-33.7 231.73-33.7 242.98 0ZM255.08 0L247.38 0 247.38-33.7 255.83-33.7 263.68-19.75Q265.33-16.8 266.56-14.23 267.78-11.65 268.13-10.6L268.13-10.6 268.53-9.5Q268.03-13.2 268.03-19.75L268.03-19.75 268.03-33.7 275.73-33.7 275.73 0 267.28 0 259.23-13.95Q257.63-16.65 256.4-19.28 255.18-21.9 254.73-23.15L254.73-23.15 254.33-24.4Q255.08-19.9 255.08-13.95L255.08-13.95 255.08 0ZM301.68-32.2L301.68-32.2 301.68-25Q297.63-27.35 293.28-27.35L293.28-27.35Q291.33-27.35 290.3-26.55 289.28-25.75 289.28-24.5 289.28-23.25 290.53-22.28 291.78-21.3 294.28-20.2L294.28-20.2Q295.83-19.5 296.85-18.98 297.88-18.45 299.2-17.53 300.53-16.6 301.3-15.58 302.08-14.55 302.63-13.05 303.18-11.55 303.18-9.8L303.18-9.8Q303.18-5.25 299.83-2.43 296.48 0.4 290.93 0.4L290.93 0.4Q284.98 0.4 281.23-1.7L281.23-1.7 281.23-9.45Q285.78-6.15 290.93-6.15L290.93-6.15Q292.68-6.15 293.83-7.08 294.98-8 294.98-9.5L294.98-9.5Q294.98-10 294.83-10.45 294.68-10.9 294.28-11.3 293.88-11.7 293.5-11.98 293.13-12.25 292.4-12.63 291.68-13 291.18-13.25 290.68-13.5 289.7-13.95 288.73-14.4 288.13-14.65L288.13-14.65Q284.88-16.15 282.9-18.35 280.93-20.55 280.93-24.2L280.93-24.2Q280.93-28.55 284.13-31.23 287.33-33.9 292.98-33.9L292.98-33.9Q298.03-33.9 301.68-32.2ZM316.13 0L308.43 0 308.43-33.7 316.13-33.7 316.13 0ZM321.37-33.7L345.57-33.7 345.57-27.5 337.37-27.5 337.37 0 329.62 0 329.62-27.5 321.37-27.5 321.37-33.7ZM358.52 0L350.82 0 350.82-33.7 358.52-33.7 358.52 0ZM364.27-16.95L364.27-16.95Q364.27-24.7 368.74-29.48 373.22-34.25 380.67-34.25L380.67-34.25Q388.17-34.25 392.62-29.5 397.07-24.75 397.07-16.95L397.07-16.95Q397.07-9.2 392.59-4.42 388.12 0.35 380.67 0.35L380.67 0.35Q373.17 0.35 368.72-4.4 364.27-9.15 364.27-16.95ZM374.72-24.48Q372.52-21.7 372.52-16.95 372.52-12.2 374.72-9.43 376.92-6.65 380.67-6.65 384.42-6.65 386.62-9.43 388.82-12.2 388.82-16.95 388.82-21.7 386.62-24.48 384.42-27.25 380.67-27.25 376.92-27.25 374.72-24.48ZM410.01 0L402.31 0 402.31-33.7 410.76-33.7 418.62-19.75Q420.26-16.8 421.49-14.23 422.71-11.65 423.06-10.6L423.06-10.6 423.46-9.5Q422.96-13.2 422.96-19.75L422.96-19.75 422.96-33.7 430.67-33.7 430.67 0 422.21 0 414.17-13.95Q412.56-16.65 411.34-19.28 410.12-21.9 409.67-23.15L409.67-23.15 409.26-24.4Q410.01-19.9 410.01-13.95L410.01-13.95 410.01 0Z" opacity="1" transform="matrix(1,0,0,1,0,0)" fill="#ffffff" class="undefined-text-0" data-fill-palette-color="quaternary" id="text-0"></path></svg></g></svg></g><g transform="matrix(1,0,0,1,39.55199999999999,86.36349424590166)"><svg viewBox="0 0 316.416 17.26457368989087" height="17.26457368989087" width="316.416"><g transform="matrix(1,0,0,1,0,0)"><svg width="316.416" viewBox="1.600000023841858 -36.70000076293945 833.8099975585938 45.5" height="17.26457368989087" data-palette-color="#ede6f3"><path d="M14.2 0.6L14.2 0.6Q11.55 0.6 9.25-0.28 6.95-1.15 5.25-2.83 3.55-4.5 2.58-6.95 1.6-9.4 1.6-12.5L1.6-12.5Q1.6-15.6 2.7-18.05 3.8-20.5 5.65-22.18 7.5-23.85 9.93-24.73 12.35-25.6 15-25.6L15-25.6Q17.25-25.6 19.05-24.9 20.85-24.2 22.3-23L22.3-23 18.3-17.5Q17.45-18.2 16.82-18.45 16.2-18.7 15.5-18.7L15.5-18.7Q13.1-18.7 11.75-17.03 10.4-15.35 10.4-12.5L10.4-12.5Q10.4-9.65 11.78-7.98 13.15-6.3 15.2-6.3L15.2-6.3Q16.25-6.3 17.28-6.75 18.3-7.2 19.2-7.9L19.2-7.9 22.5-2.3Q20.6-0.65 18.38-0.03 16.15 0.6 14.2 0.6ZM34.1 0.6L34.1 0.6Q32.05 0.6 30.57-0.13 29.1-0.85 28.15-2.18 27.2-3.5 26.75-5.38 26.3-7.25 26.3-9.6L26.3-9.6 26.3-25 34.9-25 34.9-10.7Q34.9-8.3 35.5-7.5 36.1-6.7 37.4-6.7L37.4-6.7Q38.6-6.7 39.37-7.2 40.15-7.7 41-8.9L41-8.9 41-25 49.6-25 49.6 0 42.6 0 42-3.3 41.8-3.3Q40.3-1.5 38.47-0.45 36.65 0.6 34.1 0.6ZM63.1 0.6L63.1 0.6Q60.7 0.6 58.02-0.35 55.35-1.3 53.4-2.9L53.4-2.9 57.2-8.2Q60.6-5.7 63.3-5.7L63.3-5.7Q64.65-5.7 65.22-6.08 65.8-6.45 65.8-7.2L65.8-7.2Q65.8-7.7 65.4-8.08 65-8.45 64.32-8.78 63.65-9.1 62.8-9.4 61.95-9.7 61-10.1L61-10.1Q59.9-10.55 58.77-11.18 57.65-11.8 56.75-12.7 55.85-13.6 55.27-14.78 54.7-15.95 54.7-17.5L54.7-17.5Q54.7-19.35 55.42-20.85 56.15-22.35 57.45-23.4 58.75-24.45 60.57-25.03 62.4-25.6 64.59-25.6L64.59-25.6Q67.7-25.6 69.92-24.58 72.15-23.55 73.8-22.3L73.8-22.3 70-17.2Q68.65-18.2 67.34-18.75 66.05-19.3 64.9-19.3L64.9-19.3Q62.7-19.3 62.7-17.9L62.7-17.9Q62.7-17.4 63.07-17.05 63.45-16.7 64.09-16.4 64.75-16.1 65.59-15.83 66.45-15.55 67.4-15.2L67.4-15.2Q68.5-14.8 69.65-14.2 70.8-13.6 71.72-12.73 72.65-11.85 73.22-10.63 73.8-9.4 73.8-7.7L73.8-7.7Q73.8-5.95 73.09-4.42 72.4-2.9 71.05-1.78 69.7-0.65 67.7-0.03 65.7 0.6 63.1 0.6ZM87.29 0.6L87.29 0.6Q84.84 0.6 83.12-0.13 81.39-0.85 80.27-2.2 79.14-3.55 78.62-5.43 78.09-7.3 78.09-9.6L78.09-9.6 78.09-18.3 74.79-18.3 74.79-24.7 78.59-25 79.59-31.5 86.69-31.5 86.69-25 92.39-25 92.39-18.3 86.69-18.3 86.69-9.75Q86.69-7.65 87.59-6.88 88.49-6.1 89.69-6.1L89.69-6.1Q90.29-6.1 90.87-6.23 91.44-6.35 91.89-6.5L91.89-6.5 93.19-0.3Q92.19 0 90.79 0.3 89.39 0.6 87.29 0.6ZM107.09 0.6L107.09 0.6Q104.69 0.6 102.44-0.28 100.19-1.15 98.47-2.83 96.74-4.5 95.72-6.95 94.69-9.4 94.69-12.5L94.69-12.5Q94.69-15.6 95.72-18.05 96.74-20.5 98.47-22.18 100.19-23.85 102.44-24.73 104.69-25.6 107.09-25.6L107.09-25.6Q109.49-25.6 111.72-24.73 113.94-23.85 115.67-22.18 117.39-20.5 118.44-18.05 119.49-15.6 119.49-12.5L119.49-12.5Q119.49-9.4 118.44-6.95 117.39-4.5 115.67-2.83 113.94-1.15 111.72-0.28 109.49 0.6 107.09 0.6ZM107.09-6.3L107.09-6.3Q109.04-6.3 109.87-7.98 110.69-9.65 110.69-12.5L110.69-12.5Q110.69-15.35 109.87-17.03 109.04-18.7 107.09-18.7L107.09-18.7Q105.14-18.7 104.31-17.03 103.49-15.35 103.49-12.5L103.49-12.5Q103.49-9.65 104.31-7.98 105.14-6.3 107.09-6.3ZM132.59 0L123.99 0 123.99-25 130.99-25 131.59-21.95 131.79-21.95Q133.29-23.4 135.01-24.5 136.74-25.6 139.29-25.6L139.29-25.6Q141.84-25.6 143.51-24.58 145.19-23.55 146.19-21.6L146.19-21.6Q147.74-23.2 149.54-24.4 151.34-25.6 153.89-25.6L153.89-25.6Q157.99-25.6 159.89-22.83 161.79-20.05 161.79-15.4L161.79-15.4 161.79 0 153.19 0 153.19-14.3Q153.19-16.7 152.59-17.5 151.99-18.3 150.69-18.3L150.69-18.3Q149.09-18.3 147.19-16.4L147.19-16.4 147.19 0 138.59 0 138.59-14.3Q138.59-16.7 137.99-17.5 137.39-18.3 136.09-18.3L136.09-18.3Q134.49-18.3 132.59-16.4L132.59-16.4 132.59 0ZM192.18 0.6L192.18 0.6Q189.08 0.6 186.26-0.43 183.43-1.45 181.31-3.53 179.18-5.6 177.93-8.72 176.68-11.85 176.68-16L176.68-16Q176.68-20.1 177.98-23.28 179.28-26.45 181.46-28.63 183.63-30.8 186.46-31.95 189.28-33.1 192.38-33.1L192.38-33.1Q195.63-33.1 198.18-31.83 200.73-30.55 202.48-28.8L202.48-28.8 197.98-23.3Q196.78-24.35 195.51-25.03 194.23-25.7 192.58-25.7L192.58-25.7Q191.13-25.7 189.86-25.05 188.58-24.4 187.61-23.2 186.63-22 186.06-20.25 185.48-18.5 185.48-16.3L185.48-16.3Q185.48-11.7 187.41-9.25 189.33-6.8 192.48-6.8L192.48-6.8Q194.38-6.8 195.86-7.63 197.33-8.45 198.38-9.6L198.38-9.6 202.88-4.2Q200.78-1.8 198.06-0.6 195.33 0.6 192.18 0.6ZM216.18 0.6L216.18 0.6Q213.08 0.6 209.81-0.53 206.53-1.65 203.88-4.05L203.88-4.05 208.78-9.95Q210.53-8.55 212.56-7.68 214.58-6.8 216.38-6.8L216.38-6.8Q218.33-6.8 219.21-7.4 220.08-8 220.08-9.1L220.08-9.1Q220.08-9.7 219.78-10.1 219.48-10.5 218.91-10.85 218.33-11.2 217.53-11.53 216.73-11.85 215.68-12.25L215.68-12.25 211.63-13.95Q210.33-14.45 209.13-15.28 207.93-16.1 207.03-17.23 206.13-18.35 205.61-19.8 205.08-21.25 205.08-23L205.08-23Q205.08-25.1 205.98-26.93 206.88-28.75 208.48-30.13 210.08-31.5 212.31-32.3 214.53-33.1 217.18-33.1L217.18-33.1Q219.98-33.1 222.86-32.05 225.73-31 227.98-28.75L227.98-28.75 223.68-23.35Q222.03-24.5 220.51-25.1 218.98-25.7 217.18-25.7L217.18-25.7Q215.58-25.7 214.68-25.15 213.78-24.6 213.78-23.5L213.78-23.5Q213.78-22.35 215.06-21.73 216.33-21.1 218.58-20.25L218.58-20.25 222.53-18.7Q225.58-17.5 227.23-15.35 228.88-13.2 228.88-9.8L228.88-9.8Q228.88-7.75 228.03-5.85 227.18-3.95 225.56-2.53 223.93-1.1 221.58-0.25 219.23 0.6 216.18 0.6ZM243.38 0.6L243.38 0.6Q240.28 0.6 237-0.53 233.73-1.65 231.08-4.05L231.08-4.05 235.98-9.95Q237.73-8.55 239.75-7.68 241.78-6.8 243.58-6.8L243.58-6.8Q245.53-6.8 246.4-7.4 247.28-8 247.28-9.1L247.28-9.1Q247.28-9.7 246.98-10.1 246.68-10.5 246.1-10.85 245.53-11.2 244.73-11.53 243.93-11.85 242.88-12.25L242.88-12.25 238.83-13.95Q237.53-14.45 236.33-15.28 235.13-16.1 234.23-17.23 233.33-18.35 232.8-19.8 232.28-21.25 232.28-23L232.28-23Q232.28-25.1 233.18-26.93 234.08-28.75 235.68-30.13 237.28-31.5 239.5-32.3 241.73-33.1 244.38-33.1L244.38-33.1Q247.18-33.1 250.05-32.05 252.93-31 255.18-28.75L255.18-28.75 250.88-23.35Q249.23-24.5 247.7-25.1 246.18-25.7 244.38-25.7L244.38-25.7Q242.78-25.7 241.88-25.15 240.98-24.6 240.98-23.5L240.98-23.5Q240.98-22.35 242.25-21.73 243.53-21.1 245.78-20.25L245.78-20.25 249.73-18.7Q252.78-17.5 254.43-15.35 256.08-13.2 256.08-9.8L256.08-9.8Q256.08-7.75 255.23-5.85 254.38-3.95 252.75-2.53 251.13-1.1 248.78-0.25 246.43 0.6 243.38 0.6ZM280.87 0.6L280.87 0.6Q278.42 0.6 276.7-0.13 274.97-0.85 273.85-2.2 272.72-3.55 272.2-5.43 271.67-7.3 271.67-9.6L271.67-9.6 271.67-18.3 268.37-18.3 268.37-24.7 272.17-25 273.17-31.5 280.27-31.5 280.27-25 285.97-25 285.97-18.3 280.27-18.3 280.27-9.75Q280.27-7.65 281.17-6.88 282.07-6.1 283.27-6.1L283.27-6.1Q283.87-6.1 284.45-6.23 285.02-6.35 285.47-6.5L285.47-6.5 286.77-0.3Q285.77 0 284.37 0.3 282.97 0.6 280.87 0.6ZM299.17 0L290.57 0 290.57-25 297.57-25 298.17-20.7 298.37-20.7Q299.77-23.25 301.69-24.43 303.62-25.6 305.47-25.6L305.47-25.6Q306.62-25.6 307.32-25.48 308.02-25.35 308.57-25.1L308.57-25.1 307.17-17.7Q306.47-17.85 305.85-17.98 305.22-18.1 304.37-18.1L304.37-18.1Q303.02-18.1 301.55-17.18 300.07-16.25 299.17-13.9L299.17-13.9 299.17 0ZM316.47 0.6L316.47 0.6Q314.72 0.6 313.32-0.03 311.92-0.65 310.94-1.7 309.97-2.75 309.47-4.15 308.97-5.55 308.97-7.1L308.97-7.1Q308.97-11 312.17-13.23 315.37-15.45 322.57-16.2L322.57-16.2Q322.27-18.8 319.07-18.8L319.07-18.8Q317.72-18.8 316.22-18.28 314.72-17.75 312.77-16.7L312.77-16.7 309.77-22.3Q312.42-23.9 315.12-24.75 317.82-25.6 320.77-25.6L320.77-25.6Q325.62-25.6 328.39-22.83 331.17-20.05 331.17-13.9L331.17-13.9 331.17 0 324.17 0 323.57-2.4 323.37-2.4Q321.87-1.05 320.19-0.23 318.52 0.6 316.47 0.6ZM319.47-6L319.47-6Q320.52-6 321.19-6.48 321.87-6.95 322.57-7.7L322.57-7.7 322.57-11.1Q319.47-10.65 318.32-9.75 317.17-8.85 317.17-7.8L317.17-7.8Q317.17-6 319.47-6ZM345.37 0L336.76 0 336.76-25 343.76-25 344.37-22 344.56-22Q346.06-23.45 347.99-24.53 349.92-25.6 352.47-25.6L352.47-25.6Q356.56-25.6 358.42-22.83 360.26-20.05 360.26-15.4L360.26-15.4 360.26 0 351.67 0 351.67-14.3Q351.67-16.7 351.06-17.5 350.47-18.3 349.17-18.3L349.17-18.3Q347.97-18.3 347.17-17.8 346.37-17.3 345.37-16.4L345.37-16.4 345.37 0ZM373.56 0.6L373.56 0.6Q371.16 0.6 368.49-0.35 365.81-1.3 363.86-2.9L363.86-2.9 367.66-8.2Q371.06-5.7 373.76-5.7L373.76-5.7Q375.11-5.7 375.69-6.08 376.26-6.45 376.26-7.2L376.26-7.2Q376.26-7.7 375.86-8.08 375.46-8.45 374.79-8.78 374.11-9.1 373.26-9.4 372.41-9.7 371.46-10.1L371.46-10.1Q370.36-10.55 369.24-11.18 368.11-11.8 367.21-12.7 366.31-13.6 365.74-14.78 365.16-15.95 365.16-17.5L365.16-17.5Q365.16-19.35 365.89-20.85 366.61-22.35 367.91-23.4 369.21-24.45 371.04-25.03 372.86-25.6 375.06-25.6L375.06-25.6Q378.16-25.6 380.39-24.58 382.61-23.55 384.26-22.3L384.26-22.3 380.46-17.2Q379.11-18.2 377.81-18.75 376.51-19.3 375.36-19.3L375.36-19.3Q373.16-19.3 373.16-17.9L373.16-17.9Q373.16-17.4 373.54-17.05 373.91-16.7 374.56-16.4 375.21-16.1 376.06-15.83 376.91-15.55 377.86-15.2L377.86-15.2Q378.96-14.8 380.11-14.2 381.26-13.6 382.19-12.73 383.11-11.85 383.69-10.63 384.26-9.4 384.26-7.7L384.26-7.7Q384.26-5.95 383.56-4.42 382.86-2.9 381.51-1.78 380.16-0.65 378.16-0.03 376.16 0.6 373.56 0.6ZM397.06 0L388.46 0 388.46-25 397.06-25 397.06 0ZM392.76-28.1L392.76-28.1Q390.66-28.1 389.31-29.3 387.96-30.5 387.96-32.4L387.96-32.4Q387.96-34.3 389.31-35.5 390.66-36.7 392.76-36.7L392.76-36.7Q394.86-36.7 396.21-35.5 397.56-34.3 397.56-32.4L397.56-32.4Q397.56-30.5 396.21-29.3 394.86-28.1 392.76-28.1ZM413.16 0.6L413.16 0.6Q410.71 0.6 408.98-0.13 407.26-0.85 406.13-2.2 405.01-3.55 404.48-5.43 403.96-7.3 403.96-9.6L403.96-9.6 403.96-18.3 400.66-18.3 400.66-24.7 404.46-25 405.46-31.5 412.56-31.5 412.56-25 418.26-25 418.26-18.3 412.56-18.3 412.56-9.75Q412.56-7.65 413.46-6.88 414.36-6.1 415.56-6.1L415.56-6.1Q416.16-6.1 416.73-6.23 417.31-6.35 417.76-6.5L417.76-6.5 419.06-0.3Q418.06 0 416.66 0.3 415.26 0.6 413.16 0.6ZM431.46 0L422.86 0 422.86-25 431.46-25 431.46 0ZM427.16-28.1L427.16-28.1Q425.06-28.1 423.71-29.3 422.36-30.5 422.36-32.4L422.36-32.4Q422.36-34.3 423.71-35.5 425.06-36.7 427.16-36.7L427.16-36.7Q429.26-36.7 430.61-35.5 431.96-34.3 431.96-32.4L431.96-32.4Q431.96-30.5 430.61-29.3 429.26-28.1 427.16-28.1ZM448.35 0.6L448.35 0.6Q445.95 0.6 443.7-0.28 441.45-1.15 439.73-2.83 438-4.5 436.98-6.95 435.95-9.4 435.95-12.5L435.95-12.5Q435.95-15.6 436.98-18.05 438-20.5 439.73-22.18 441.45-23.85 443.7-24.73 445.95-25.6 448.35-25.6L448.35-25.6Q450.75-25.6 452.98-24.73 455.2-23.85 456.93-22.18 458.65-20.5 459.7-18.05 460.75-15.6 460.75-12.5L460.75-12.5Q460.75-9.4 459.7-6.95 458.65-4.5 456.93-2.83 455.2-1.15 452.98-0.28 450.75 0.6 448.35 0.6ZM448.35-6.3L448.35-6.3Q450.3-6.3 451.13-7.98 451.95-9.65 451.95-12.5L451.95-12.5Q451.95-15.35 451.13-17.03 450.3-18.7 448.35-18.7L448.35-18.7Q446.4-18.7 445.58-17.03 444.75-15.35 444.75-12.5L444.75-12.5Q444.75-9.65 445.58-7.98 446.4-6.3 448.35-6.3ZM473.85 0L465.25 0 465.25-25 472.25-25 472.85-22 473.05-22Q474.55-23.45 476.48-24.53 478.4-25.6 480.95-25.6L480.95-25.6Q485.05-25.6 486.9-22.83 488.75-20.05 488.75-15.4L488.75-15.4 488.75 0 480.15 0 480.15-14.3Q480.15-16.7 479.55-17.5 478.95-18.3 477.65-18.3L477.65-18.3Q476.45-18.3 475.65-17.8 474.85-17.3 473.85-16.4L473.85-16.4 473.85 0ZM502.05 0.6L502.05 0.6Q499.65 0.6 496.97-0.35 494.3-1.3 492.35-2.9L492.35-2.9 496.15-8.2Q499.55-5.7 502.25-5.7L502.25-5.7Q503.6-5.7 504.17-6.08 504.75-6.45 504.75-7.2L504.75-7.2Q504.75-7.7 504.35-8.08 503.95-8.45 503.27-8.78 502.6-9.1 501.75-9.4 500.9-9.7 499.95-10.1L499.95-10.1Q498.85-10.55 497.72-11.18 496.6-11.8 495.7-12.7 494.8-13.6 494.22-14.78 493.65-15.95 493.65-17.5L493.65-17.5Q493.65-19.35 494.37-20.85 495.1-22.35 496.4-23.4 497.7-24.45 499.52-25.03 501.35-25.6 503.55-25.6L503.55-25.6Q506.65-25.6 508.87-24.58 511.1-23.55 512.75-22.3L512.75-22.3 508.95-17.2Q507.6-18.2 506.3-18.75 505-19.3 503.85-19.3L503.85-19.3Q501.65-19.3 501.65-17.9L501.65-17.9Q501.65-17.4 502.02-17.05 502.4-16.7 503.05-16.4 503.7-16.1 504.55-15.83 505.4-15.55 506.35-15.2L506.35-15.2Q507.45-14.8 508.6-14.2 509.75-13.6 510.67-12.73 511.6-11.85 512.17-10.63 512.75-9.4 512.75-7.7L512.75-7.7Q512.75-5.95 512.05-4.42 511.35-2.9 510-1.78 508.65-0.65 506.65-0.03 504.65 0.6 502.05 0.6ZM535.54 0L526.94 0 526.94-34.8 535.54-34.8 535.54-26.7 535.14-22.4Q536.44-23.55 538.27-24.58 540.09-25.6 542.64-25.6L542.64-25.6Q546.74-25.6 548.59-22.83 550.44-20.05 550.44-15.4L550.44-15.4 550.44 0 541.84 0 541.84-14.3Q541.84-16.7 541.24-17.5 540.64-18.3 539.34-18.3L539.34-18.3Q538.14-18.3 537.34-17.8 536.54-17.3 535.54-16.4L535.54-16.4 535.54 0ZM567.14 0.6L567.14 0.6Q564.74 0.6 562.49-0.28 560.24-1.15 558.51-2.83 556.79-4.5 555.76-6.95 554.74-9.4 554.74-12.5L554.74-12.5Q554.74-15.6 555.76-18.05 556.79-20.5 558.51-22.18 560.24-23.85 562.49-24.73 564.74-25.6 567.14-25.6L567.14-25.6Q569.54-25.6 571.76-24.73 573.99-23.85 575.71-22.18 577.44-20.5 578.49-18.05 579.54-15.6 579.54-12.5L579.54-12.5Q579.54-9.4 578.49-6.95 577.44-4.5 575.71-2.83 573.99-1.15 571.76-0.28 569.54 0.6 567.14 0.6ZM567.14-6.3L567.14-6.3Q569.09-6.3 569.91-7.98 570.74-9.65 570.74-12.5L570.74-12.5Q570.74-15.35 569.91-17.03 569.09-18.7 567.14-18.7L567.14-18.7Q565.19-18.7 564.36-17.03 563.54-15.35 563.54-12.5L563.54-12.5Q563.54-9.65 564.36-7.98 565.19-6.3 567.14-6.3ZM595.14 0.6L595.14 0.6Q592.74 0.6 590.49-0.28 588.24-1.15 586.51-2.83 584.79-4.5 583.76-6.95 582.74-9.4 582.74-12.5L582.74-12.5Q582.74-15.6 583.76-18.05 584.79-20.5 586.51-22.18 588.24-23.85 590.49-24.73 592.74-25.6 595.14-25.6L595.14-25.6Q597.54-25.6 599.76-24.73 601.99-23.85 603.71-22.18 605.44-20.5 606.49-18.05 607.54-15.6 607.54-12.5L607.54-12.5Q607.54-9.4 606.49-6.95 605.44-4.5 603.71-2.83 601.99-1.15 599.76-0.28 597.54 0.6 595.14 0.6ZM595.14-6.3L595.14-6.3Q597.09-6.3 597.91-7.98 598.74-9.65 598.74-12.5L598.74-12.5Q598.74-15.35 597.91-17.03 597.09-18.7 595.14-18.7L595.14-18.7Q593.19-18.7 592.36-17.03 591.54-15.35 591.54-12.5L591.54-12.5Q591.54-9.65 592.36-7.98 593.19-6.3 595.14-6.3ZM620.43 0L612.03 0 612.03-34.8 620.43-34.8 620.43-16.3 620.63-16.3 627.53-25 636.83-25 627.93-14.6 637.33 0 628.03 0 623.03-8.9 620.43-6 620.43 0ZM660.53 0L651.93 0 651.93-18.3 648.63-18.3 648.63-24.7 651.93-24.95 651.93-25.3Q651.93-27.3 652.43-29.13 652.93-30.95 654.1-32.35 655.28-33.75 657.15-34.58 659.03-35.4 661.83-35.4L661.83-35.4Q663.58-35.4 664.93-35.1 666.28-34.8 667.13-34.5L667.13-34.5 665.63-28.2Q665.03-28.45 664.38-28.58 663.73-28.7 663.13-28.7L663.13-28.7Q661.93-28.7 661.23-28.03 660.53-27.35 660.53-25.6L660.53-25.6 660.53-25 664.73-25 664.73-18.3 660.53-18.3 660.53 0ZM679.03 0.6L679.03 0.6Q676.63 0.6 674.38-0.28 672.13-1.15 670.4-2.83 668.68-4.5 667.65-6.95 666.63-9.4 666.63-12.5L666.63-12.5Q666.63-15.6 667.65-18.05 668.68-20.5 670.4-22.18 672.13-23.85 674.38-24.73 676.63-25.6 679.03-25.6L679.03-25.6Q681.43-25.6 683.65-24.73 685.88-23.85 687.6-22.18 689.33-20.5 690.38-18.05 691.43-15.6 691.43-12.5L691.43-12.5Q691.43-9.4 690.38-6.95 689.33-4.5 687.6-2.83 685.88-1.15 683.65-0.28 681.43 0.6 679.03 0.6ZM679.03-6.3L679.03-6.3Q680.98-6.3 681.8-7.98 682.63-9.65 682.63-12.5L682.63-12.5Q682.63-15.35 681.8-17.03 680.98-18.7 679.03-18.7L679.03-18.7Q677.08-18.7 676.25-17.03 675.43-15.35 675.43-12.5L675.43-12.5Q675.43-9.65 676.25-7.98 677.08-6.3 679.03-6.3ZM704.52 0L695.92 0 695.92-25 702.92-25 703.52-20.7 703.72-20.7Q705.12-23.25 707.05-24.43 708.97-25.6 710.82-25.6L710.82-25.6Q711.97-25.6 712.67-25.48 713.37-25.35 713.92-25.1L713.92-25.1 712.52-17.7Q711.82-17.85 711.2-17.98 710.57-18.1 709.72-18.1L709.72-18.1Q708.37-18.1 706.9-17.18 705.42-16.25 704.52-13.9L704.52-13.9 704.52 0ZM750.02 8.8L741.42 8.8 741.42 1.65 741.72-1.9Q740.57-0.75 738.99-0.08 737.42 0.6 735.92 0.6L735.92 0.6Q733.57 0.6 731.69-0.3 729.82-1.2 728.49-2.9 727.17-4.6 726.44-7.03 725.72-9.45 725.72-12.5L725.72-12.5Q725.72-15.55 726.59-18 727.47-20.45 728.89-22.13 730.32-23.8 732.17-24.7 734.02-25.6 735.92-25.6L735.92-25.6Q737.92-25.6 739.44-24.88 740.97-24.15 742.42-22.5L742.42-22.5 742.62-22.5 743.32-25 750.02-25 750.02 8.8ZM738.22-6.4L738.22-6.4Q739.22-6.4 739.97-6.78 740.72-7.15 741.42-8.2L741.42-8.2 741.42-17.4Q740.67-18.1 739.77-18.35 738.87-18.6 738.02-18.6L738.02-18.6Q736.67-18.6 735.59-17.25 734.52-15.9 734.52-12.6L734.52-12.6Q734.52-9.2 735.49-7.8 736.47-6.4 738.22-6.4ZM769.92 0L760.12 0 754.12-25 762.62-25 764.52-14.5Q764.82-12.6 765.02-10.73 765.22-8.85 765.52-6.9L765.52-6.9 765.72-6.9Q766.02-8.85 766.34-10.78 766.67-12.7 767.12-14.5L767.12-14.5 769.42-25 776.72-25 779.12-14.5Q779.57-12.6 779.89-10.73 780.22-8.85 780.62-6.9L780.62-6.9 780.82-6.9Q781.12-8.85 781.32-10.73 781.52-12.6 781.82-14.5L781.82-14.5 783.72-25 791.62-25 785.92 0 775.92 0 774.12-8.7Q773.82-10.45 773.52-12.2 773.22-13.95 772.92-16.05L772.92-16.05 772.72-16.05Q772.42-13.95 772.17-12.2 771.92-10.45 771.62-8.7L771.62-8.7 769.92 0ZM804.31 0L795.71 0 795.71-25 804.31-25 804.31 0ZM800.01-28.1L800.01-28.1Q797.91-28.1 796.56-29.3 795.21-30.5 795.21-32.4L795.21-32.4Q795.21-34.3 796.56-35.5 797.91-36.7 800.01-36.7L800.01-36.7Q802.11-36.7 803.46-35.5 804.81-34.3 804.81-32.4L804.81-32.4Q804.81-30.5 803.46-29.3 802.11-28.1 800.01-28.1ZM818.51 0L810.11 0 810.11-34.8 818.51-34.8 818.51-16.3 818.71-16.3 825.61-25 834.91-25 826.01-14.6 835.41 0 826.11 0 821.11-8.9 818.51-6 818.51 0Z" opacity="1" transform="matrix(1,0,0,1,0,0)" fill="#ede6f3" class="undefined-text-1" data-fill-palette-color="secondary" id="text-1"></path></svg></g></svg></g></svg></g></svg></g><g></g></svg></g><defs></defs></svg><rect width="395.52" height="103.62806793579253" fill="none" stroke="none" visibility="hidden"></rect></g></svg></g></svg>